<?xml version="1.0" encoding="UTF-8" standalone="no"?>
<svg
   width="338.49564pt"
   height="84.598679pt"
   viewBox="0 0 338.49564 84.598679"
   version="1.1"
   id="svg109"
   sodipodi:docname="stabilizer_order.svg"
   inkscape:export-filename="stabilizer_order.pdf"
   inkscape:export-xdpi="96"
   inkscape:export-ydpi="96"
   inkscape:version="1.3.2 (091e20e, 2023-11-25, custom)"
   xmlns:inkscape="http://www.inkscape.org/namespaces/inkscape"
   xmlns:sodipodi="http://sodipodi.sourceforge.net/DTD/sodipodi-0.dtd"
   xmlns:xlink="http://www.w3.org/1999/xlink"
   xmlns="http://www.w3.org/2000/svg"
   xmlns:svg="http://www.w3.org/2000/svg"
   xmlns:rdf="http://www.w3.org/1999/02/22-rdf-syntax-ns#"
   xmlns:cc="http://creativecommons.org/ns#"
   xmlns:dc="http://purl.org/dc/elements/1.1/">
  <sodipodi:namedview
     id="namedview109"
     pagecolor="#ffffff"
     bordercolor="#000000"
     borderopacity="0.25"
     inkscape:showpageshadow="2"
     inkscape:pageopacity="0.0"
     inkscape:pagecheckerboard="0"
     inkscape:deskcolor="#d1d1d1"
     inkscape:document-units="pt"
     inkscape:zoom="1.3802083"
     inkscape:cx="95.275472"
     inkscape:cy="7.9698113"
     inkscape:window-width="1920"
     inkscape:window-height="1010"
     inkscape:window-x="1913"
     inkscape:window-y="-6"
     inkscape:window-maximized="1"
     inkscape:current-layer="figure_1" />
  <metadata
     id="metadata1">
    <rdf:RDF>
      <cc:Work>
        <dc:type
           rdf:resource="http://purl.org/dc/dcmitype/StillImage" />
        <dc:date>2025-01-30T17:39:50.169593</dc:date>
        <dc:format>image/svg+xml</dc:format>
        <dc:creator>
          <cc:Agent>
            <dc:title>Matplotlib v3.9.2, https://matplotlib.org/</dc:title>
          </cc:Agent>
        </dc:creator>
      </cc:Work>
    </rdf:RDF>
  </metadata>
  <defs
     id="defs1">
    <style
       type="text/css"
       id="style1">*{stroke-linejoin: round; stroke-linecap: butt}</style>
  </defs>
  <g
     id="figure_1"
     transform="translate(-11.104375,-9.860071)">
    <g
       id="axes_1">
      <g
         id="patch_2">
        <path
           d="M 50.87,66.04 H 349.2 V 10.98 H 50.87 Z"
           style="fill:#ffffff"
           id="path2" />
      </g>
      <g
         id="matplotlib.axis_1">
        <g
           id="xtick_1">
          <g
             id="line2d_1">
            <defs
               id="defs2">
              <path
                 id="mb12a5ae33e"
                 d="M 0,0 V 3.5"
                 style="stroke:#000000;stroke-width:0.8" />
            </defs>
            <g
               id="g2">
              <use
                 xlink:href="#mb12a5ae33e"
                 x="64.430458"
                 y="66.040001"
                 style="stroke:#000000;stroke-width:0.8"
                 id="use2" />
            </g>
          </g>
          <g
             id="text_1">
            <!-- 0 -->
            <g
               transform="matrix(0.1,0,0,-0.1,61.249205,80.638437)"
               id="g3">
              <defs
                 id="defs3">
                <path
                   id="DejaVuSans-30"
                   d="m 2034,4250 q -487,0 -733,-480 -245,-479 -245,-1442 0,-959 245,-1439 246,-480 733,-480 491,0 736,480 246,480 246,1439 0,963 -246,1442 -245,480 -736,480 z m 0,500 q 785,0 1199,-621 414,-620 414,-1801 0,-1178 -414,-1799 -414,-620 -1199,-620 -784,0 -1198,620 -414,621 -414,1799 0,1181 414,1801 414,621 1198,621 z"
                   transform="scale(0.015625)" />
              </defs>
              <use
                 xlink:href="#DejaVuSans-30"
                 id="use3" />
            </g>
          </g>
        </g>
        <g
           id="xtick_2">
          <g
             id="line2d_2">
            <g
               id="g4">
              <use
                 xlink:href="#mb12a5ae33e"
                 x="98.544807"
                 y="66.040001"
                 style="stroke:#000000;stroke-width:0.8"
                 id="use4" />
            </g>
          </g>
          <g
             id="text_2">
            <!-- 20 -->
            <g
               transform="matrix(0.1,0,0,-0.1,92.182306,80.638437)"
               id="g6">
              <defs
                 id="defs4">
                <path
                   id="DejaVuSans-32"
                   d="M 1228,531 H 3431 V 0 H 469 v 531 q 359,372 979,998 621,627 780,809 303,340 423,576 121,236 121,464 0,372 -261,606 -261,235 -680,235 -297,0 -627,-103 -329,-103 -704,-313 v 638 q 381,153 712,231 332,78 607,78 725,0 1156,-363 431,-362 431,-968 0,-288 -108,-546 -107,-257 -392,-607 -78,-91 -497,-524 Q 1991,1309 1228,531 Z"
                   transform="scale(0.015625)" />
              </defs>
              <use
                 xlink:href="#DejaVuSans-32"
                 id="use5" />
              <use
                 xlink:href="#DejaVuSans-30"
                 x="63.623047"
                 id="use6" />
            </g>
          </g>
        </g>
        <g
           id="xtick_3">
          <g
             id="line2d_3">
            <g
               id="g7">
              <use
                 xlink:href="#mb12a5ae33e"
                 x="132.65916"
                 y="66.040001"
                 style="stroke:#000000;stroke-width:0.8"
                 id="use7" />
            </g>
          </g>
          <g
             id="text_3">
            <!-- 40 -->
            <g
               transform="matrix(0.1,0,0,-0.1,126.29666,80.638437)"
               id="g9">
              <defs
                 id="defs7">
                <path
                   id="DejaVuSans-34"
                   d="M 2419,4116 825,1625 h 1594 z m -166,550 h 794 V 1625 h 666 V 1100 H 3047 V 0 H 2419 V 1100 H 313 v 609 z"
                   transform="scale(0.015625)" />
              </defs>
              <use
                 xlink:href="#DejaVuSans-34"
                 id="use8" />
              <use
                 xlink:href="#DejaVuSans-30"
                 x="63.623047"
                 id="use9" />
            </g>
          </g>
        </g>
        <g
           id="xtick_4">
          <g
             id="line2d_4">
            <g
               id="g10">
              <use
                 xlink:href="#mb12a5ae33e"
                 x="166.77351"
                 y="66.040001"
                 style="stroke:#000000;stroke-width:0.8"
                 id="use10" />
            </g>
          </g>
          <g
             id="text_4">
            <!-- 60 -->
            <g
               transform="matrix(0.1,0,0,-0.1,160.41101,80.638437)"
               id="g12">
              <defs
                 id="defs10">
                <path
                   id="DejaVuSans-36"
                   d="m 2113,2584 q -425,0 -674,-291 -248,-290 -248,-796 0,-503 248,-796 249,-292 674,-292 425,0 673,292 248,293 248,796 0,506 -248,796 -248,291 -673,291 z m 1253,1979 v -575 q -238,112 -480,171 -242,60 -480,60 -625,0 -955,-422 -329,-422 -376,-1275 184,272 462,417 279,145 613,145 703,0 1111,-427 408,-426 408,-1160 0,-719 -425,-1154 -425,-434 -1131,-434 -810,0 -1238,620 -428,621 -428,1799 0,1106 525,1764 525,658 1409,658 238,0 480,-47 242,-47 505,-140 z"
                   transform="scale(0.015625)" />
              </defs>
              <use
                 xlink:href="#DejaVuSans-36"
                 id="use11" />
              <use
                 xlink:href="#DejaVuSans-30"
                 x="63.623047"
                 id="use12" />
            </g>
          </g>
        </g>
        <g
           id="xtick_5">
          <g
             id="line2d_5">
            <g
               id="g13">
              <use
                 xlink:href="#mb12a5ae33e"
                 x="200.88786"
                 y="66.040001"
                 style="stroke:#000000;stroke-width:0.8"
                 id="use13" />
            </g>
          </g>
          <g
             id="text_5">
            <!-- 80 -->
            <g
               transform="matrix(0.1,0,0,-0.1,194.52536,80.638437)"
               id="g15">
              <defs
                 id="defs13">
                <path
                   id="DejaVuSans-38"
                   d="m 2034,2216 q -450,0 -708,-241 -257,-241 -257,-662 0,-422 257,-663 258,-241 708,-241 450,0 709,242 260,243 260,662 0,421 -258,662 -257,241 -711,241 z m -631,268 q -406,100 -633,378 -226,279 -226,679 0,559 398,884 399,325 1092,325 697,0 1094,-325 397,-325 397,-884 0,-400 -227,-679 -226,-278 -629,-378 456,-106 710,-416 255,-309 255,-755 Q 3634,634 3220,271 2806,-91 2034,-91 1263,-91 848,271 434,634 434,1313 q 0,446 256,755 257,310 713,416 z m -231,997 q 0,-362 226,-565 227,-203 636,-203 407,0 636,203 230,203 230,565 0,363 -230,566 -229,203 -636,203 -409,0 -636,-203 -226,-203 -226,-566 z"
                   transform="scale(0.015625)" />
              </defs>
              <use
                 xlink:href="#DejaVuSans-38"
                 id="use14" />
              <use
                 xlink:href="#DejaVuSans-30"
                 x="63.623047"
                 id="use15" />
            </g>
          </g>
        </g>
        <g
           id="xtick_6">
          <g
             id="line2d_6">
            <g
               id="g16">
              <use
                 xlink:href="#mb12a5ae33e"
                 x="235.00221"
                 y="66.040001"
                 style="stroke:#000000;stroke-width:0.8"
                 id="use16" />
            </g>
          </g>
          <g
             id="text_6">
            <!-- 100 -->
            <g
               transform="matrix(0.1,0,0,-0.1,225.45846,80.638437)"
               id="g19">
              <defs
                 id="defs16">
                <path
                   id="DejaVuSans-31"
                   d="M 794,531 H 1825 V 4091 L 703,3866 v 575 l 1116,225 h 631 V 531 H 3481 V 0 H 794 Z"
                   transform="scale(0.015625)" />
              </defs>
              <use
                 xlink:href="#DejaVuSans-31"
                 id="use17" />
              <use
                 xlink:href="#DejaVuSans-30"
                 x="63.623047"
                 id="use18" />
              <use
                 xlink:href="#DejaVuSans-30"
                 x="127.24609"
                 id="use19" />
            </g>
          </g>
        </g>
        <g
           id="xtick_7">
          <g
             id="line2d_7">
            <g
               id="g20">
              <use
                 xlink:href="#mb12a5ae33e"
                 x="269.11655"
                 y="66.040001"
                 style="stroke:#000000;stroke-width:0.8"
                 id="use20" />
            </g>
          </g>
          <g
             id="text_7">
            <!-- 120 -->
            <g
               transform="matrix(0.1,0,0,-0.1,259.57281,80.638437)"
               id="g23">
              <use
                 xlink:href="#DejaVuSans-31"
                 id="use21" />
              <use
                 xlink:href="#DejaVuSans-32"
                 x="63.623047"
                 id="use22" />
              <use
                 xlink:href="#DejaVuSans-30"
                 x="127.24609"
                 id="use23" />
            </g>
          </g>
        </g>
        <g
           id="xtick_8">
          <g
             id="line2d_8">
            <g
               id="g24">
              <use
                 xlink:href="#mb12a5ae33e"
                 x="303.23093"
                 y="66.040001"
                 style="stroke:#000000;stroke-width:0.8"
                 id="use24" />
            </g>
          </g>
          <g
             id="text_8">
            <!-- 140 -->
            <g
               transform="matrix(0.1,0,0,-0.1,293.68716,80.638437)"
               id="g27">
              <use
                 xlink:href="#DejaVuSans-31"
                 id="use25" />
              <use
                 xlink:href="#DejaVuSans-34"
                 x="63.623047"
                 id="use26" />
              <use
                 xlink:href="#DejaVuSans-30"
                 x="127.24609"
                 id="use27" />
            </g>
          </g>
        </g>
        <g
           id="xtick_9">
          <g
             id="line2d_9">
            <g
               id="g28">
              <use
                 xlink:href="#mb12a5ae33e"
                 x="337.34528"
                 y="66.040001"
                 style="stroke:#000000;stroke-width:0.8"
                 id="use28" />
            </g>
          </g>
          <g
             id="text_9">
            <!-- 160 -->
            <g
               transform="matrix(0.1,0,0,-0.1,327.80151,80.638437)"
               id="g31">
              <use
                 xlink:href="#DejaVuSans-31"
                 id="use29" />
              <use
                 xlink:href="#DejaVuSans-36"
                 x="63.623047"
                 id="use30" />
              <use
                 xlink:href="#DejaVuSans-30"
                 x="127.24609"
                 id="use31" />
            </g>
          </g>
        </g>
        <g
           id="text_10">
          <!-- Number of Gates -->
          <g
             transform="matrix(0.1,0,0,-0.1,157.37172,94.316562)"
             id="g46">
            <defs
               id="defs31">
              <path
                 id="DejaVuSans-4e"
                 d="m 628,4666 h 850 L 3547,763 v 3903 h 612 V 0 H 3309 L 1241,3903 V 0 H 628 Z"
                 transform="scale(0.015625)" />
              <path
                 id="DejaVuSans-75"
                 d="m 544,1381 v 2119 h 575 V 1403 q 0,-497 193,-746 194,-248 582,-248 465,0 735,297 271,297 271,810 v 1984 h 575 V 0 H 2900 V 538 Q 2691,219 2414,64 2138,-91 1772,-91 1169,-91 856,284 544,659 544,1381 Z m 1447,2203 z"
                 transform="scale(0.015625)" />
              <path
                 id="DejaVuSans-6d"
                 d="m 3328,2828 q 216,388 516,572 300,184 706,184 547,0 844,-383 297,-382 297,-1088 V 0 h -578 v 2094 q 0,503 -179,746 -178,244 -543,244 -447,0 -707,-297 -259,-296 -259,-809 V 0 h -578 v 2094 q 0,506 -178,748 -178,242 -550,242 -441,0 -701,-298 -259,-298 -259,-808 V 0 H 581 v 3500 h 578 v -544 q 197,322 472,475 275,153 653,153 382,0 649,-194 267,-193 395,-562 z"
                 transform="scale(0.015625)" />
              <path
                 id="DejaVuSans-62"
                 d="m 3116,1747 q 0,634 -261,995 -261,361 -717,361 -457,0 -718,-361 -261,-361 -261,-995 0,-634 261,-995 261,-361 718,-361 456,0 717,361 261,361 261,995 z M 1159,2969 q 182,312 458,463 277,152 661,152 638,0 1036,-506 399,-506 399,-1331 Q 3713,922 3314,415 2916,-91 2278,-91 1894,-91 1617,61 1341,213 1159,525 V 0 H 581 v 4863 h 578 z"
                 transform="scale(0.015625)" />
              <path
                 id="DejaVuSans-65"
                 d="M 3597,1894 V 1613 H 953 q 38,-594 358,-905 320,-311 892,-311 331,0 642,81 311,81 618,244 V 178 Q 3153,47 2828,-22 2503,-91 2169,-91 1331,-91 842,396 353,884 353,1716 q 0,859 464,1363 464,505 1252,505 706,0 1117,-455 411,-454 411,-1235 z m -575,169 q -6,471 -264,752 -258,282 -683,282 -481,0 -770,-272 -289,-272 -333,-766 z"
                 transform="scale(0.015625)" />
              <path
                 id="DejaVuSans-72"
                 d="m 2631,2963 q -97,56 -211,82 -114,27 -251,27 -488,0 -749,-317 -261,-317 -261,-911 V 0 H 581 v 3500 h 578 v -544 q 182,319 472,473 291,155 707,155 59,0 131,-8 72,-7 159,-23 z"
                 transform="scale(0.015625)" />
              <path
                 id="DejaVuSans-20"
                 transform="scale(0.015625)"
                 d="" />
              <path
                 id="DejaVuSans-6f"
                 d="m 1959,3097 q -462,0 -731,-361 -269,-361 -269,-989 0,-628 267,-989 268,-361 733,-361 460,0 728,362 269,363 269,988 0,622 -269,986 -268,364 -728,364 z m 0,487 q 750,0 1178,-488 429,-487 429,-1349 Q 3566,888 3137,398 2709,-91 1959,-91 1206,-91 779,398 353,888 353,1747 q 0,862 426,1349 427,488 1180,488 z"
                 transform="scale(0.015625)" />
              <path
                 id="DejaVuSans-66"
                 d="m 2375,4863 v -479 h -550 q -309,0 -430,-125 -120,-125 -120,-450 v -309 h 947 V 3053 H 1275 V 0 H 697 V 3053 H 147 v 447 h 550 v 244 q 0,584 272,851 272,268 862,268 z"
                 transform="scale(0.015625)" />
              <path
                 id="DejaVuSans-47"
                 d="M 3809,666 V 1919 H 2778 v 519 H 4434 V 434 Q 4069,175 3628,42 3188,-91 2688,-91 1594,-91 976,548 359,1188 359,2328 q 0,1144 617,1783 618,639 1712,639 456,0 867,-113 411,-112 758,-331 v -672 q -350,297 -744,447 -394,150 -828,150 -857,0 -1287,-478 -429,-478 -429,-1425 0,-944 429,-1422 430,-478 1287,-478 334,0 596,58 263,58 472,180 z"
                 transform="scale(0.015625)" />
              <path
                 id="DejaVuSans-61"
                 d="m 2194,1759 q -697,0 -966,-159 -269,-159 -269,-544 0,-306 202,-486 202,-179 548,-179 479,0 768,339 289,339 289,901 v 128 z m 1147,238 V 0 H 2766 V 531 Q 2569,213 2275,61 1981,-91 1556,-91 q -537,0 -855,302 -317,302 -317,808 0,590 395,890 396,300 1180,300 h 807 v 57 q 0,397 -261,614 -261,217 -733,217 -300,0 -585,-72 -284,-72 -546,-216 v 532 q 315,122 612,182 297,61 578,61 760,0 1135,-394 375,-393 375,-1193 z"
                 transform="scale(0.015625)" />
              <path
                 id="DejaVuSans-74"
                 d="M 1172,4494 V 3500 H 2356 V 3053 H 1172 V 1153 q 0,-428 117,-550 117,-122 477,-122 h 590 V 0 H 1766 Q 1100,0 847,248 594,497 594,1153 V 3053 H 172 v 447 h 422 v 994 z"
                 transform="scale(0.015625)" />
              <path
                 id="DejaVuSans-73"
                 d="m 2834,3397 v -544 q -243,125 -506,187 -262,63 -544,63 -428,0 -642,-131 -214,-131 -214,-394 0,-200 153,-314 153,-114 616,-217 l 197,-44 q 612,-131 870,-370 258,-239 258,-667 0,-488 -386,-773 Q 2250,-91 1575,-91 1294,-91 989,-36 684,19 347,128 v 594 q 319,-166 628,-249 309,-82 613,-82 406,0 624,139 219,139 219,392 0,234 -158,359 -157,125 -692,241 l -200,47 q -534,112 -772,345 -237,233 -237,639 0,494 350,762 350,269 994,269 318,0 599,-47 282,-46 519,-140 z"
                 transform="scale(0.015625)" />
            </defs>
            <use
               xlink:href="#DejaVuSans-4e"
               id="use32" />
            <use
               xlink:href="#DejaVuSans-75"
               x="74.804688"
               id="use33" />
            <use
               xlink:href="#DejaVuSans-6d"
               x="138.18359"
               id="use34" />
            <use
               xlink:href="#DejaVuSans-62"
               x="235.5957"
               id="use35" />
            <use
               xlink:href="#DejaVuSans-65"
               x="299.07227"
               id="use36" />
            <use
               xlink:href="#DejaVuSans-72"
               x="360.5957"
               id="use37" />
            <use
               xlink:href="#DejaVuSans-20"
               x="401.70898"
               id="use38" />
            <use
               xlink:href="#DejaVuSans-6f"
               x="433.49609"
               id="use39" />
            <use
               xlink:href="#DejaVuSans-66"
               x="494.67773"
               id="use40" />
            <use
               xlink:href="#DejaVuSans-20"
               x="529.88281"
               id="use41" />
            <use
               xlink:href="#DejaVuSans-47"
               x="561.66992"
               id="use42" />
            <use
               xlink:href="#DejaVuSans-61"
               x="639.16016"
               id="use43" />
            <use
               xlink:href="#DejaVuSans-74"
               x="700.43945"
               id="use44" />
            <use
               xlink:href="#DejaVuSans-65"
               x="739.64844"
               id="use45" />
            <use
               xlink:href="#DejaVuSans-73"
               x="801.17188"
               id="use46" />
          </g>
        </g>
      </g>
      <g
         id="matplotlib.axis_2">
        <g
           id="ytick_1">
          <g
             id="line2d_10">
            <defs
               id="defs46">
              <path
                 id="mde000178d6"
                 d="M 0,0 H -3.5"
                 style="stroke:#000000;stroke-width:0.8" />
            </defs>
            <g
               id="g47">
              <use
                 xlink:href="#mde000178d6"
                 x="50.869999"
                 y="63.537273"
                 style="stroke:#000000;stroke-width:0.8"
                 id="use47" />
            </g>
          </g>
          <g
             id="text_11">
            <!-- 1 -->
            <g
               transform="matrix(0.1,0,0,-0.1,37.5075,67.336491)"
               id="g48">
              <use
                 xlink:href="#DejaVuSans-31"
                 id="use48" />
            </g>
          </g>
        </g>
        <g
           id="ytick_2">
          <g
             id="line2d_11">
            <g
               id="g49">
              <use
                 xlink:href="#mde000178d6"
                 x="50.869999"
                 y="44.027824"
                 style="stroke:#000000;stroke-width:0.8"
                 id="use49" />
            </g>
          </g>
          <g
             id="text_12">
            <!-- 100 -->
            <g
               transform="matrix(0.1,0,0,-0.1,24.7825,47.827043)"
               id="g52">
              <use
                 xlink:href="#DejaVuSans-31"
                 id="use50" />
              <use
                 xlink:href="#DejaVuSans-30"
                 x="63.623047"
                 id="use51" />
              <use
                 xlink:href="#DejaVuSans-30"
                 x="127.24609"
                 id="use52" />
            </g>
          </g>
        </g>
        <g
           id="ytick_3">
          <g
             id="line2d_12">
            <g
               id="g53">
              <use
                 xlink:href="#mde000178d6"
                 x="50.869999"
                 y="24.32131"
                 style="stroke:#000000;stroke-width:0.8"
                 id="use53" />
            </g>
          </g>
          <g
             id="text_13">
            <!-- 200 -->
            <g
               transform="matrix(0.1,0,0,-0.1,24.7825,28.120529)"
               id="g56">
              <use
                 xlink:href="#DejaVuSans-32"
                 id="use54" />
              <use
                 xlink:href="#DejaVuSans-30"
                 x="63.623047"
                 id="use55" />
              <use
                 xlink:href="#DejaVuSans-30"
                 x="127.24609"
                 id="use56" />
            </g>
          </g>
        </g>
        <g
           id="ytick_4">
          <g
             id="line2d_13">
            <g
               id="g57">
              <use
                 xlink:href="#mde000178d6"
                 x="50.869999"
                 y="13.482727"
                 style="stroke:#000000;stroke-width:0.8"
                 id="use57" />
            </g>
          </g>
          <g
             id="text_14">
            <!-- 255 -->
            <g
               transform="matrix(0.1,0,0,-0.1,24.7825,17.281946)"
               id="g60">
              <defs
                 id="defs57">
                <path
                   id="DejaVuSans-35"
                   d="M 691,4666 H 3169 V 4134 H 1269 V 2991 q 137,47 274,70 138,23 276,23 781,0 1237,-428 457,-428 457,-1159 Q 3513,744 3044,326 2575,-91 1722,-91 1428,-91 1123,-41 819,9 494,109 v 635 q 281,-153 581,-228 300,-75 634,-75 541,0 856,284 316,284 316,772 0,487 -316,771 -315,285 -856,285 -253,0 -505,-56 -251,-56 -513,-175 z"
                   transform="scale(0.015625)" />
              </defs>
              <use
                 xlink:href="#DejaVuSans-32"
                 id="use58" />
              <use
                 xlink:href="#DejaVuSans-35"
                 x="63.623047"
                 id="use59" />
              <use
                 xlink:href="#DejaVuSans-35"
                 x="127.24609"
                 id="use60" />
            </g>
          </g>
        </g>
        <g
           id="text_15">
          <!-- Order -->
          <g
             transform="matrix(0,-0.1,-0.1,0,18.702813,52.720156)"
             id="g65">
            <defs
               id="defs60">
              <path
                 id="DejaVuSans-4f"
                 d="m 2522,4238 q -688,0 -1093,-513 -404,-512 -404,-1397 0,-881 404,-1394 405,-512 1093,-512 687,0 1089,512 402,513 402,1394 0,885 -402,1397 -402,513 -1089,513 z m 0,512 q 981,0 1568,-658 588,-658 588,-1764 0,-1103 -588,-1761 -587,-658 -1568,-658 -984,0 -1574,656 -589,657 -589,1763 0,1106 589,1764 590,658 1574,658 z"
                 transform="scale(0.015625)" />
              <path
                 id="DejaVuSans-64"
                 d="m 2906,2969 v 1894 h 575 V 0 H 2906 V 525 Q 2725,213 2448,61 2172,-91 1784,-91 1150,-91 751,415 353,922 353,1747 q 0,825 398,1331 399,506 1033,506 388,0 664,-152 277,-151 458,-463 z M 947,1747 q 0,-634 261,-995 261,-361 717,-361 456,0 718,361 263,361 263,995 0,634 -263,995 -262,361 -718,361 -456,0 -717,-361 -261,-361 -261,-995 z"
                 transform="scale(0.015625)" />
            </defs>
            <use
               xlink:href="#DejaVuSans-4f"
               id="use61" />
            <use
               xlink:href="#DejaVuSans-72"
               x="78.710938"
               id="use62" />
            <use
               xlink:href="#DejaVuSans-64"
               x="118.07422"
               id="use63" />
            <use
               xlink:href="#DejaVuSans-65"
               x="181.55078"
               id="use64" />
            <use
               xlink:href="#DejaVuSans-72"
               x="243.07422"
               id="use65" />
          </g>
        </g>
      </g>
      <g
         id="line2d_14">
        <path
           d="m 64.430455,63.537273 h 5.117152 l 3.411435,-0.394131 h 11.940023 l 3.411435,-1.18239 h 8.528588 l 1.705718,-1.182391 1.705714,-1.576521 1.70572,-0.394131 h 1.70572 l 3.41143,-6.306084 1.70572,-7.094345 1.70572,-3.547173 h 1.70572 l 1.70571,-7.68554 1.70572,-4.138368 1.70572,-1.773586 h 6.82287 l 1.70572,-2.364782 1.70571,-4.926628 1.70572,-1.379456 1.70572,-3.941303 1.70572,-0.985326 3.41143,-0.39413 1.70572,-0.39413 1.70572,-0.197066 h 1.70571 l 1.70572,-0.197065 h 192.74608 v 0"
           clip-path="url(#p2bd000ff56)"
           style="fill:none;stroke:#000000;stroke-width:1.5;stroke-linecap:square"
           id="path65" />
      </g>
      <g
         id="line2d_15">
        <path
           d="m 64.430455,63.537273 h 5.117152 l 3.411435,-0.394131 h 1.705718 l 3.411435,-1.18239 h 6.82287 L 88.3105,58.413579 h 8.528588 l 1.705718,-2.364782 1.705714,-3.744237 1.70572,-1.379456 1.70572,-8.276736 1.70572,-6.50315 h 1.70571 l 1.70572,-1.970651 1.70572,-7.29141 1.70572,-0.591196 1.70571,-4.729563 1.70572,-3.744238 1.70572,-0.78826 h 8.52859 l 1.70571,-1.970652 1.70572,-0.78826 1.70572,-0.591196 1.70572,-0.197065 h 202.98038 v 0"
           clip-path="url(#p2bd000ff56)"
           style="fill:none;stroke:#000000;stroke-width:1.5;stroke-linecap:square"
           id="path66" />
      </g>
      <g
         id="line2d_16">
        <path
           d="M 64.430455,63.537273 H 74.66476 l 3.411435,-0.394131 h 1.705718 l 3.411435,-1.18239 h 13.64574 l 1.705718,-1.182391 1.705714,-1.379456 1.70572,-0.197065 1.70572,-1.970652 1.70572,-3.350107 1.70571,-1.379456 1.70572,-7.094345 1.70572,-5.320759 h 1.70572 l 1.70571,-1.773586 1.70572,-3.547173 h 8.52859 l 3.41143,-14.58282 1.70572,-1.576521 1.70572,-0.197065 1.70572,-1.773586 1.70571,-0.788261 1.70572,-0.985326 1.70572,-1.182391 1.70572,-0.197065 h 196.15751 v 0"
           clip-path="url(#p2bd000ff56)"
           style="fill:none;stroke:#000000;stroke-width:1.5;stroke-linecap:square"
           id="path67" />
      </g>
      <g
         id="line2d_17">
        <path
           d="m 64.430455,63.537273 h 15.351458 l 3.411435,-0.394131 h 1.705717 l 3.411435,-1.18239 h 10.234306 l 3.411434,-1.576522 3.41144,-4.729563 h 1.70571 l 1.70572,-3.153042 1.70572,-5.714889 1.70572,-2.561847 1.70571,-11.823908 1.70572,-6.50315 h 8.52859 l 1.70572,-2.364782 1.70571,-5.320758 1.70572,-1.970652 h 1.70572 l 1.70572,-0.591195 1.70571,-0.197065 1.70572,-1.182391 1.70572,-0.788261 h 197.86323 v 0"
           clip-path="url(#p2bd000ff56)"
           style="fill:none;stroke:#000000;stroke-width:1.5;stroke-linecap:square"
           id="path68" />
      </g>
      <g
         id="line2d_18">
        <path
           d="M 91.721935,66.04 V 10.98"
           clip-path="url(#p2bd000ff56)"
           style="fill:none;stroke:#ff0000;stroke-width:1.5;stroke-linecap:square"
           id="path69" />
      </g>
      <g
         id="line2d_19">
        <path
           d="M 119.01342,66.04 V 10.98"
           clip-path="url(#p2bd000ff56)"
           style="fill:none;stroke:#008000;stroke-width:1.5;stroke-linecap:square"
           id="path70" />
      </g>
      <g
         id="line2d_20">
        <path
           d="M 146.3049,66.04 V 10.98"
           clip-path="url(#p2bd000ff56)"
           style="fill:none;stroke:#0000ff;stroke-width:1.5;stroke-linecap:square"
           id="path71" />
      </g>
      <g
         id="patch_3">
        <path
           d="M 50.87,66.04 V 10.98"
           style="fill:none;stroke:#000000;stroke-width:0.8;stroke-linecap:square;stroke-linejoin:miter"
           id="path72" />
      </g>
      <g
         id="patch_4">
        <path
           d="M 349.2,66.04 V 10.98"
           style="fill:none;stroke:#000000;stroke-width:0.8;stroke-linecap:square;stroke-linejoin:miter"
           id="path73" />
      </g>
      <g
         id="patch_5">
        <path
           d="M 50.87,66.04 H 349.2"
           style="fill:none;stroke:#000000;stroke-width:0.8;stroke-linecap:square;stroke-linejoin:miter"
           id="path74" />
      </g>
      <g
         id="patch_6">
        <path
           d="M 50.87,10.98 H 349.2"
           style="fill:none;stroke:#000000;stroke-width:0.8;stroke-linecap:square;stroke-linejoin:miter"
           id="path75" />
      </g>
      <g
         id="legend_1">
        <g
           id="patch_7">
          <path
             d="M 247.62969,63.014375 H 342.2 q 2,0 2,-2 V 17.98 q 0,-2 -2,-2 h -94.57031 q -2,0 -2,2 v 43.034375 q 0,2 2,2 z"
             style="opacity:0.8;fill:#ffffff;stroke:#cccccc;stroke-linejoin:miter"
             id="path76" />
        </g>
        <g
           id="line2d_21">
          <path
             d="m 249.62969,24.078438 h 10 10"
             style="fill:none;stroke:#ff0000;stroke-width:1.5;stroke-linecap:square"
             id="path77" />
        </g>
        <g
           id="text_16">
          <!-- #Layers = 1 -->
          <g
             transform="matrix(0.1,0,0,-0.1,277.62969,27.578438)"
             id="g87">
            <defs
               id="defs77">
              <path
                 id="DejaVuSans-23"
                 d="M 3272,2816 H 2363 L 2100,1772 h 916 z M 2803,4594 2478,3297 h 913 l 328,1297 h 500 L 3897,3297 h 975 V 2816 H 3775 L 3519,1772 h 994 V 1294 H 3397 L 3072,0 h -500 l 322,1294 H 1978 L 1656,0 h -503 l 325,1294 H 494 v 478 h 1100 l 262,1044 H 850 v 481 h 1128 l 319,1297 z"
                 transform="scale(0.015625)" />
              <path
                 id="DejaVuSans-4c"
                 d="m 628,4666 h 631 V 531 H 3531 V 0 H 628 Z"
                 transform="scale(0.015625)" />
              <path
                 id="DejaVuSans-79"
                 d="m 2059,-325 q -243,-625 -475,-815 -231,-191 -618,-191 H 506 v 481 h 338 q 237,0 368,113 132,112 291,531 L 1606,56 191,3500 H 800 L 1894,763 2988,3500 h 609 z"
                 transform="scale(0.015625)" />
              <path
                 id="DejaVuSans-3d"
                 d="M 678,2906 H 4684 V 2381 H 678 Z m 0,-1275 H 4684 V 1100 H 678 Z"
                 transform="scale(0.015625)" />
            </defs>
            <use
               xlink:href="#DejaVuSans-23"
               id="use77" />
            <use
               xlink:href="#DejaVuSans-4c"
               x="83.789062"
               id="use78" />
            <use
               xlink:href="#DejaVuSans-61"
               x="139.50195"
               id="use79" />
            <use
               xlink:href="#DejaVuSans-79"
               x="200.78125"
               id="use80" />
            <use
               xlink:href="#DejaVuSans-65"
               x="259.96094"
               id="use81" />
            <use
               xlink:href="#DejaVuSans-72"
               x="321.48438"
               id="use82" />
            <use
               xlink:href="#DejaVuSans-73"
               x="362.59766"
               id="use83" />
            <use
               xlink:href="#DejaVuSans-20"
               x="414.69727"
               id="use84" />
            <use
               xlink:href="#DejaVuSans-3d"
               x="446.48438"
               id="use85" />
            <use
               xlink:href="#DejaVuSans-20"
               x="530.27344"
               id="use86" />
            <use
               xlink:href="#DejaVuSans-31"
               x="562.06055"
               id="use87" />
          </g>
        </g>
        <g
           id="line2d_22">
          <path
             d="m 249.62969,38.756563 h 10 10"
             style="fill:none;stroke:#008000;stroke-width:1.5;stroke-linecap:square"
             id="path87" />
        </g>
        <g
           id="text_17">
          <!-- #Layers = 2 -->
          <g
             transform="matrix(0.1,0,0,-0.1,277.62969,42.256563)"
             id="g98">
            <use
               xlink:href="#DejaVuSans-23"
               id="use88" />
            <use
               xlink:href="#DejaVuSans-4c"
               x="83.789062"
               id="use89" />
            <use
               xlink:href="#DejaVuSans-61"
               x="139.50195"
               id="use90" />
            <use
               xlink:href="#DejaVuSans-79"
               x="200.78125"
               id="use91" />
            <use
               xlink:href="#DejaVuSans-65"
               x="259.96094"
               id="use92" />
            <use
               xlink:href="#DejaVuSans-72"
               x="321.48438"
               id="use93" />
            <use
               xlink:href="#DejaVuSans-73"
               x="362.59766"
               id="use94" />
            <use
               xlink:href="#DejaVuSans-20"
               x="414.69727"
               id="use95" />
            <use
               xlink:href="#DejaVuSans-3d"
               x="446.48438"
               id="use96" />
            <use
               xlink:href="#DejaVuSans-20"
               x="530.27344"
               id="use97" />
            <use
               xlink:href="#DejaVuSans-32"
               x="562.06055"
               id="use98" />
          </g>
        </g>
        <g
           id="line2d_23">
          <path
             d="m 249.62969,53.434688 h 10 10"
             style="fill:none;stroke:#0000ff;stroke-width:1.5;stroke-linecap:square"
             id="path98" />
        </g>
        <g
           id="text_18">
          <!-- #Layers = 3 -->
          <g
             transform="matrix(0.1,0,0,-0.1,277.62969,56.934688)"
             id="g109">
            <defs
               id="defs98">
              <path
                 id="DejaVuSans-33"
                 d="m 2597,2516 q 453,-97 707,-404 255,-306 255,-756 0,-690 -475,-1069 -475,-378 -1350,-378 -293,0 -604,58 -311,58 -642,174 v 609 q 262,-153 574,-231 313,-78 654,-78 593,0 904,234 311,234 311,681 0,413 -289,645 -289,233 -804,233 h -544 v 519 h 569 q 465,0 712,186 247,186 247,536 0,359 -255,551 -254,193 -729,193 -260,0 -557,-57 -297,-56 -653,-174 v 562 q 360,100 674,150 314,50 592,50 719,0 1137,-327 419,-326 419,-882 0,-388 -222,-655 -222,-267 -631,-370 z"
                 transform="scale(0.015625)" />
            </defs>
            <use
               xlink:href="#DejaVuSans-23"
               id="use99" />
            <use
               xlink:href="#DejaVuSans-4c"
               x="83.789062"
               id="use100" />
            <use
               xlink:href="#DejaVuSans-61"
               x="139.50195"
               id="use101" />
            <use
               xlink:href="#DejaVuSans-79"
               x="200.78125"
               id="use102" />
            <use
               xlink:href="#DejaVuSans-65"
               x="259.96094"
               id="use103" />
            <use
               xlink:href="#DejaVuSans-72"
               x="321.48438"
               id="use104" />
            <use
               xlink:href="#DejaVuSans-73"
               x="362.59766"
               id="use105" />
            <use
               xlink:href="#DejaVuSans-20"
               x="414.69727"
               id="use106" />
            <use
               xlink:href="#DejaVuSans-3d"
               x="446.48438"
               id="use107" />
            <use
               xlink:href="#DejaVuSans-20"
               x="530.27344"
               id="use108" />
            <use
               xlink:href="#DejaVuSans-33"
               x="562.06055"
               id="use109" />
          </g>
        </g>
      </g>
    </g>
  </g>
  <defs
     id="defs109">
    <clipPath
       id="p2bd000ff56">
      <rect
         x="50.869999"
         y="10.98"
         width="298.32999"
         height="55.060001"
         id="rect109" />
    </clipPath>
  </defs>
</svg>
